<svg xmlns="http://www.w3.org/2000/svg" width="673" height="645" viewBox="0 0 673 645"><metadata><rdf:RDF xmlns:rdf="http://www.w3.org/1999/02/22-rdf-syntax-ns#" xmlns:dc="http://purl.org/dc/elements/1.1/"><rdf:Description><dc:creator>RealFaviconGenerator</dc:creator><dc:source>https://realfavicongenerator.net</dc:source></rdf:Description></rdf:RDF></metadata><g>
<path d="M 83.30 524.04 C78.74,521.26 76.75,516.89 77.31,510.89 C77.57,508.19 78.33,505.31 79.01,504.49 C79.69,503.67 79.96,503.00 79.62,503.00 C79.18,503.00 80.58,500.05 82.96,495.68 C82.62,496.43 82.58,496.76 82.87,496.58 C83.33,496.30 85.42,493.13 87.52,489.54 C89.62,485.94 91.71,483.00 92.17,483.00 C92.63,483.00 93.00,482.33 93.00,481.50 C93.00,480.67 93.45,480.00 94.00,480.00 C94.55,480.00 94.95,479.66 94.88,479.25 C94.55,477.15 95.12,475.96 96.15,476.60 C96.92,477.07 97.04,476.87 96.49,475.98 C95.89,475.01 96.13,474.84 97.39,475.32 C98.33,475.68 98.85,475.57 98.55,475.08 C97.52,473.41 99.10,471.10 100.83,471.75 C102.29,472.30 102.33,472.16 101.11,470.66 C99.90,469.18 99.92,469.03 101.26,469.55 C102.10,469.87 103.14,469.59 103.55,468.91 C104.08,468.07 103.88,467.94 102.90,468.51 C102.13,468.96 102.58,468.14 103.90,466.69 C105.21,465.25 106.77,464.36 107.35,464.71 C107.93,465.07 110.12,465.27 112.23,465.14 C114.33,465.02 116.60,465.26 117.28,465.68 C121.04,468.05 129.56,465.92 133.25,461.70 C134.21,460.60 135.00,460.21 135.00,460.85 C135.00,461.48 134.07,462.93 132.92,464.08 C131.78,465.22 131.10,466.82 131.41,467.63 C131.77,468.58 131.56,468.85 130.82,468.39 C130.05,467.91 129.87,468.22 130.29,469.32 C130.68,470.32 130.46,470.88 129.76,470.74 C129.12,470.61 128.55,471.17 128.50,472.00 C128.45,472.83 127.88,473.39 127.24,473.26 C126.57,473.13 126.32,473.67 126.66,474.55 C126.98,475.39 126.57,476.85 125.75,477.79 C123.58,480.29 112.01,498.77 111.35,500.78 C111.05,501.73 113.20,498.73 116.15,494.13 C123.13,483.22 129.89,473.58 137.10,464.37 C126.41,478.18 116.66,492.98 107.01,509.86 C99.71,522.62 96.16,526.00 90.10,526.00 C88.12,525.99 85.06,525.11 83.30,524.04 ZM 376.03 285.25 C374.13,284.29 371.65,281.92 370.53,280.00 C368.97,277.31 368.61,275.77 368.52,245.77 C368.58,246.10 368.65,246.28 368.71,246.32 C369.37,246.73 369.99,244.30 370.42,239.73 C370.94,234.19 370.99,231.61 372.30,230.45 C373.61,229.28 376.18,229.52 381.75,229.64 C387.11,229.75 391.79,229.88 392.14,229.92 C393.40,230.08 394.25,237.74 394.87,254.50 C395.09,260.33 395.29,257.71 395.45,247.56 C395.29,276.10 394.61,281.03 391.79,283.47 C391.15,284.02 390.40,284.45 389.51,284.99 C385.52,287.46 380.61,287.56 376.03,285.25 ZM 545.90 557.73 C544.67,556.91 543.66,556.32 542.83,555.54 C538.80,551.77 539.00,543.48 539.00,482.15 C539.00,436.56 539.09,421.74 539.80,415.85 C539.11,421.72 539.05,436.57 539.17,482.65 C539.28,524.64 539.60,543.55 540.04,533.50 C540.82,515.32 541.51,511.32 544.14,509.68 C545.16,509.04 546.00,507.73 546.00,506.76 C546.00,504.73 549.91,504.31 551.74,506.14 C552.60,507.00 553.64,506.98 555.90,506.04 C557.56,505.35 559.27,504.80 559.71,504.80 C560.14,504.80 561.22,504.42 562.10,503.94 C565.16,502.31 565.99,506.70 566.28,526.00 C566.30,527.76 566.33,528.60 566.36,528.60 C566.50,528.60 566.67,509.42 566.77,480.15 C566.97,423.18 566.83,415.53 565.42,412.47 C566.89,415.57 567.03,422.69 566.78,483.71 C566.52,545.55 566.35,551.71 564.81,553.89 C560.36,560.18 552.08,561.86 545.90,557.73 ZM 70.00 390.25 C65.36,387.93 61.75,380.99 62.60,376.03 C62.70,375.42 62.90,374.70 63.18,373.88 C63.64,373.57 64.92,371.60 66.40,368.83 C68.27,365.35 70.33,362.62 70.98,362.77 C71.62,362.93 71.87,362.60 71.53,362.05 C70.65,360.62 74.00,355.89 75.36,356.67 C75.99,357.03 76.19,356.98 75.82,356.56 C75.08,355.74 80.48,350.00 81.98,350.00 C82.49,350.00 83.27,350.66 83.72,351.46 C84.33,352.55 86.90,352.99 93.77,353.17 C101.88,353.39 103.00,353.64 103.00,355.21 C103.00,356.19 102.55,357.00 102.00,357.00 C101.45,357.00 101.00,357.84 101.00,358.87 C101.00,359.89 100.17,361.80 99.17,363.12 C97.14,365.75 94.31,371.15 92.94,375.00 C92.17,377.17 92.21,377.26 93.27,375.65 C93.82,374.83 96.54,370.70 99.80,365.76 C98.17,368.28 96.55,370.85 94.92,373.50 C83.63,391.85 79.18,394.83 70.00,390.25 ZM 368.50 183.74 L 368.50 153.00 L 368.91 153.00 L 368.50 183.74 ZM 134.35 422.88 C142.37,413.97 150.61,405.81 159.11,398.36 C171.32,387.64 184.20,377.89 197.61,369.19 C191.96,372.89 186.37,376.80 180.83,380.94 C163.28,394.05 148.23,407.56 134.35,422.88 ZM 277.50 360.48 C251.36,369.95 227.87,382.01 206.60,396.94 C227.76,381.87 250.58,370.23 277.50,360.48 ZM 141.97 313.01 C152.28,302.16 162.73,292.38 172.00,285.12 C166.23,289.64 154.74,300.13 146.48,308.42 C144.94,309.96 143.44,311.49 141.97,313.01 ZM 89.71 483.91 C91.19,481.45 92.73,478.93 94.27,476.50 C101.24,465.44 108.38,455.10 115.70,445.47 C110.92,451.80 106.22,458.45 101.53,465.50 C97.14,472.10 93.00,478.58 89.71,483.91 ZM 118.84 295.34 C110.31,304.17 102.35,313.34 94.97,322.80 C96.58,320.68 98.19,318.61 99.79,316.61 C105.02,310.07 111.60,302.75 118.84,295.34 ZM 110.00 464.65 C110.00,465.46 109.20,464.86 107.40,462.75 L 105.50 460.50 L 107.75 462.40 C108.99,463.45 110.00,464.47 110.00,464.65 ZM 379.40 125.47 L 383.65 125.50 L 387.67 128.16 C387.78,128.23 387.89,128.31 388.01,128.39 C387.29,127.93 386.52,127.49 385.68,127.09 C383.99,126.27 382.70,125.77 379.40,125.47 ZM 67.54 364.50 C69.51,360.83 71.97,356.62 74.77,352.13 C72.15,356.44 69.60,360.81 67.54,364.50 ZM 394.50 137.38 C393.97,135.68 393.32,134.21 392.51,132.92 C392.95,133.53 393.33,134.12 393.59,134.66 C393.96,135.41 394.26,136.14 394.50,137.38 Z" fill="black"></path>
<path d="M 108.50 636.40 C87.71,631.42 67.78,620.44 51.72,605.12 C32.56,586.83 17.85,560.85 10.62,532.50 C6.17,515.09 6.00,509.45 6.00,379.91 C6.00,299.97 6.37,253.52 7.06,247.21 C10.39,216.75 20.94,183.83 35.50,158.50 C49.06,134.89 72.16,107.88 93.42,90.75 C106.90,79.89 129.40,65.20 133.83,64.37 C145.11,62.26 153.33,73.18 148.36,83.66 C146.50,87.56 146.12,87.87 133.00,95.99 C121.63,103.03 107.61,114.14 95.99,125.32 C68.23,152.02 49.59,183.27 40.10,219.02 C33.67,243.23 33.90,237.53 33.78,379.93 C33.68,509.21 33.68,509.52 35.85,519.69 C41.63,546.90 53.30,568.67 71.12,585.47 C84.69,598.28 101.41,606.99 118.27,610.05 C121.65,610.66 125.68,612.06 127.23,613.16 C135.56,619.10 134.56,632.78 125.51,636.56 C121.28,638.33 116.36,638.28 108.50,636.40 ZM 168.47 636.00 C160.60,632.11 161.00,635.90 161.00,565.74 L 161.00 503.30 L 163.29 499.90 C167.34,493.87 176.69,492.61 182.63,497.28 C188.04,501.54 188.00,501.02 188.00,566.51 C188.00,624.65 187.92,627.23 186.04,630.91 C184.64,633.66 182.93,635.21 180.02,636.37 C174.79,638.47 173.36,638.42 168.47,636.00 ZM 242.50 636.20 C240.85,635.15 238.60,633.27 237.50,632.04 C235.53,629.83 235.50,628.37 235.50,543.46 L 235.50 457.13 L 238.45 454.05 C245.41,446.79 255.97,448.42 260.80,457.50 C262.23,460.18 262.40,469.39 262.40,544.00 C262.39,620.99 262.26,627.75 260.68,630.74 C257.25,637.20 248.29,639.89 242.50,636.20 ZM 312.50 636.16 C310.24,635.10 307.63,632.80 306.51,630.89 C304.55,627.57 304.52,625.89 304.80,549.12 C305.05,482.34 305.31,470.31 306.56,467.87 C310.95,459.40 323.40,459.10 329.43,467.32 C331.48,470.11 331.50,471.04 331.76,548.32 C332.01,621.36 331.91,626.73 330.26,629.93 C326.65,636.96 319.50,639.47 312.50,636.16 ZM 391.50 636.15 C383.91,632.54 384.56,645.24 384.00,488.56 L 383.50 347.62 L 378.00 346.28 C349.25,339.24 328.52,332.01 305.26,320.94 C240.75,290.21 193.88,242.24 175.12,187.74 C164.97,158.25 163.31,126.76 170.42,98.71 C180.66,58.33 212.31,25.31 253.00,12.54 C270.34,7.10 274.76,6.87 353.43,7.28 C432.46,7.70 428.46,7.41 448.40,14.07 C488.84,27.57 528.94,59.28 563.40,105.00 C593.15,144.47 612.33,187.67 621.11,235.00 C622.98,245.06 623.30,251.27 623.71,284.63 C624.13,318.58 624.00,323.10 622.54,325.92 C617.78,335.13 603.86,335.17 598.53,326.00 C596.62,322.71 596.46,320.29 595.89,285.00 C595.37,252.71 594.99,245.84 593.13,235.55 C583.42,181.86 553.32,127.76 509.36,84.96 C483.18,59.49 457.91,44.07 430.50,36.87 L 421.50 34.50 L 349.50 34.50 C269.21,34.50 268.88,34.52 252.68,41.48 C219.42,55.77 199.60,82.29 194.29,119.62 C192.85,129.76 192.79,133.07 193.85,144.41 C195.18,158.68 196.36,164.50 200.51,177.17 C214.92,221.18 254.50,263.85 306.00,290.87 C329.27,303.07 352.05,311.55 380.33,318.50 C387.94,320.37 396.12,323.05 398.51,324.45 C403.89,327.60 408.36,332.91 409.86,337.92 C410.69,340.70 411.00,380.44 411.00,484.62 C410.99,624.48 410.95,627.57 409.04,630.70 C405.08,637.20 398.20,639.34 391.50,636.15 ZM 542.50 612.60 C524.98,609.21 509.50,600.46 495.99,586.31 C478.32,567.81 470.68,548.04 470.56,520.50 C470.49,505.18 471.67,501.68 478.13,498.05 C484.97,494.20 493.08,496.49 496.68,503.26 C497.99,505.73 498.56,510.29 499.08,522.50 C499.85,540.42 500.46,543.14 506.33,554.50 C511.37,564.29 521.72,575.04 530.60,579.74 C543.35,586.47 559.82,587.73 572.50,582.94 C579.65,580.24 589.40,571.07 592.71,563.95 C596.72,555.31 597.00,550.14 597.00,484.07 C597.01,423.64 597.10,420.35 598.89,417.42 C604.05,408.95 615.70,409.35 622.32,418.23 C624.20,420.75 624.26,422.95 624.16,487.16 C624.06,552.96 623.81,558.53 620.47,568.50 C614.06,587.64 596.90,604.46 577.50,610.60 C567.59,613.74 552.75,614.59 542.50,612.60 ZM 539.17 482.65 C539.02,422.05 539.16,415.47 540.67,412.28 C545.31,402.50 560.73,402.58 565.39,412.42 C566.82,415.43 566.98,422.82 566.77,480.15 C566.65,515.54 566.43,536.17 566.28,526.00 C565.99,506.70 565.16,502.31 562.10,503.94 C561.22,504.42 560.14,504.80 559.71,504.80 C559.27,504.80 557.56,505.35 555.90,506.04 C553.64,506.98 552.60,507.00 551.74,506.14 C549.91,504.31 546.00,504.73 546.00,506.76 C546.00,507.73 545.16,509.04 544.14,509.68 C541.51,511.32 540.82,515.32 540.04,533.50 C539.60,543.55 539.28,524.64 539.17,482.65 ZM 111.35 500.78 C112.01,498.77 123.58,480.29 125.75,477.79 C126.57,476.85 126.98,475.39 126.66,474.55 C126.32,473.67 126.57,473.13 127.24,473.26 C127.88,473.39 128.45,472.83 128.50,472.00 C128.55,471.17 129.12,470.61 129.76,470.74 C130.46,470.88 130.68,470.32 130.29,469.32 C129.87,468.22 130.05,467.91 130.82,468.39 C131.56,468.85 131.77,468.58 131.41,467.63 C131.10,466.82 131.78,465.22 132.92,464.08 C134.07,462.93 135.00,461.48 135.00,460.85 C135.00,460.21 134.21,460.60 133.25,461.70 C129.56,465.92 121.04,468.05 117.28,465.68 C116.60,465.26 114.33,465.02 112.23,465.14 C110.12,465.27 107.93,465.07 107.35,464.71 C106.77,464.36 105.21,465.25 103.90,466.69 C102.58,468.14 102.13,468.96 102.90,468.51 C103.88,467.94 104.08,468.07 103.55,468.91 C103.14,469.59 102.10,469.87 101.26,469.55 C99.92,469.03 99.90,469.18 101.11,470.66 C102.33,472.16 102.29,472.30 100.83,471.75 C99.10,471.10 97.52,473.41 98.55,475.08 C98.85,475.57 98.33,475.68 97.39,475.32 C96.13,474.84 95.89,475.01 96.49,475.98 C97.04,476.87 96.92,477.07 96.15,476.60 C95.12,475.96 94.55,477.15 94.88,479.25 C94.95,479.66 94.55,480.00 94.00,480.00 C93.45,480.00 93.00,480.67 93.00,481.50 C93.00,482.33 92.63,483.00 92.17,483.00 C91.71,483.00 89.62,485.94 87.52,489.54 C85.42,493.13 83.33,496.30 82.87,496.58 C81.19,497.62 90.61,481.93 101.53,465.50 C124.98,430.24 148.74,404.91 180.83,380.94 C205.00,362.89 229.93,349.16 257.64,338.66 C273.42,332.68 276.51,332.20 281.82,334.91 C286.81,337.45 289.00,341.31 289.00,347.55 C289.00,351.47 288.49,352.71 285.75,355.43 C283.96,357.21 280.25,359.48 277.50,360.48 C233.60,376.38 200.58,397.32 167.94,429.95 C146.58,451.29 131.93,469.45 116.15,494.13 C113.20,498.73 111.05,501.73 111.35,500.78 ZM 110.00 464.65 C110.00,464.47 108.99,463.45 107.75,462.40 L 105.50 460.50 L 107.40 462.75 C109.20,464.86 110.00,465.46 110.00,464.65 ZM 579.50 382.92 C530.60,374.40 485.92,346.61 455.06,305.50 C443.30,289.83 430.32,266.07 429.38,258.48 C428.69,252.92 431.48,248.11 437.07,245.20 C445.63,240.75 452.20,244.34 458.09,256.69 C467.20,275.77 476.39,289.06 491.23,304.58 C511.98,326.29 535.08,341.14 561.89,350.00 C580.37,356.11 588.00,357.00 622.43,357.02 C638.97,357.04 654.26,357.46 656.41,357.96 C667.80,360.60 670.79,376.00 661.18,382.52 L 657.54 385.00 L 624.02 384.92 C595.74,384.85 588.78,384.54 579.50,382.92 ZM 92.94 375.00 C94.31,371.15 97.14,365.75 99.17,363.12 C100.17,361.80 101.00,359.89 101.00,358.87 C101.00,357.84 101.45,357.00 102.00,357.00 C102.55,357.00 103.00,356.19 103.00,355.21 C103.00,353.64 101.88,353.39 93.77,353.17 C86.90,352.99 84.33,352.55 83.72,351.46 C83.27,350.66 82.49,350.00 81.98,350.00 C80.48,350.00 75.08,355.74 75.82,356.56 C76.19,356.98 75.99,357.03 75.36,356.67 C74.00,355.89 70.65,360.62 71.53,362.05 C71.87,362.60 71.62,362.93 70.98,362.77 C70.33,362.62 68.27,365.35 66.40,368.83 C64.53,372.32 63.00,374.54 63.00,373.76 C63.00,371.69 76.23,348.93 83.80,338.00 C102.17,311.45 124.85,287.09 151.54,265.26 C167.44,252.25 172.68,249.34 178.36,250.41 C186.07,251.85 191.13,260.08 189.06,267.79 C187.81,272.43 186.54,273.72 172.00,285.12 C149.37,302.86 119.67,335.63 102.18,362.15 C97.96,368.56 93.95,374.63 93.27,375.65 C92.21,377.26 92.17,377.17 92.94,375.00 ZM 394.87 254.50 C394.25,237.74 393.40,230.08 392.14,229.92 C391.79,229.88 387.11,229.75 381.75,229.64 C370.61,229.41 371.46,228.65 370.42,239.73 C369.99,244.30 369.37,246.73 368.71,246.32 C368.02,245.89 367.88,230.75 368.29,199.34 L 368.91 153.00 L 339.10 153.00 C309.84,153.00 309.24,152.96 305.99,150.75 C301.08,147.40 298.89,143.90 298.82,139.28 C298.75,134.08 301.32,129.75 306.05,127.09 C309.64,125.08 311.09,125.00 345.57,125.00 C379.82,125.00 381.56,125.09 385.68,127.09 C390.79,129.56 393.49,133.04 394.97,139.07 C395.72,142.10 395.97,163.76 395.78,207.50 C395.60,247.60 395.26,265.15 394.87,254.50 ZM 493.66 180.59 C483.85,176.97 478.55,165.79 482.35,156.70 C483.96,152.85 490.02,147.28 493.57,146.39 C501.35,144.44 511.10,148.43 514.47,154.95 C517.45,160.70 517.48,165.51 514.58,171.43 C510.37,180.03 502.04,183.67 493.66,180.59 ZM 304.02 91.40 C299.49,87.30 297.71,82.48 299.04,77.86 C300.40,73.13 302.50,70.46 306.33,68.65 C309.43,67.18 315.78,67.00 365.00,67.00 C426.00,67.00 424.63,66.86 429.27,73.37 C432.53,77.94 432.39,85.88 429.00,89.51 C423.71,95.17 425.76,95.00 364.55,95.00 L 308.01 95.00 L 304.02 91.40 Z" fill="black"></path>
</g><style>@media (prefers-color-scheme: light) { :root { filter: none; } }
@media (prefers-color-scheme: dark) { :root { filter: contrast(0.3846153846153846) brightness(4.5); } }
</style></svg>