<svg xmlns="http://www.w3.org/2000/svg" width="512" height="512" viewBox="0 0 742 670">
<g>
<path d="M 416.52 661.89 C391.88,658.30 367.03,645.38 348.70,626.64 C315.08,592.24 296.90,545.75 291.77,481.10 C291.51,477.85 291.29,478.09 287.09,486.30 C277.08,505.83 267.25,513.05 256.67,508.64 C248.93,505.40 238.15,487.68 234.09,471.50 C231.61,461.63 230.00,447.10 230.00,434.69 C230.00,429.52 229.48,423.77 228.85,421.90 C226.68,415.51 218.76,404.56 210.13,396.02 C195.29,381.35 182.01,371.57 147.50,349.96 C78.63,306.83 41.28,275.57 20.56,243.74 C11.05,229.12 7.72,220.96 7.21,210.98 C6.83,203.41 7.13,201.41 9.94,193.03 C16.03,174.85 28.71,150.47 44.29,127.00 C64.68,96.29 84.12,72.66 107.18,50.55 C131.70,27.05 147.31,17.47 171.00,11.42 C179.90,9.14 202.80,8.84 212.50,10.87 C226.47,13.80 241.01,19.39 253.14,26.50 L 259.50 30.23 L 268.50 27.65 C282.74,23.56 294.29,21.93 309.00,21.93 C329.73,21.93 345.84,25.38 361.25,33.13 L 369.00 37.02 L 375.97 33.52 C391.89,25.50 408.28,22.01 430.00,22.01 C445.58,22.01 458.38,23.83 470.82,27.84 L 479.59 30.66 L 487.54 26.26 C499.60,19.59 507.62,16.34 520.65,12.82 C531.80,9.82 533.51,9.63 549.50,9.64 C564.64,9.64 567.56,9.93 576.15,12.24 C600.94,18.91 626.45,37.09 654.70,68.22 C682.79,99.18 705.35,131.42 722.06,164.49 C729.98,180.15 734.35,191.90 736.07,202.14 C737.19,208.79 737.14,210.61 735.67,216.56 C729.38,242.03 698.94,277.57 656.34,309.17 C642.07,319.76 614.06,338.14 588.00,354.02 C549.46,377.50 537.91,385.93 521.44,402.60 C508.26,415.95 504.03,425.91 504.01,443.62 C503.98,463.63 494.07,491.64 482.98,503.02 C466.48,519.96 451.40,506.27 436.48,460.83 C433.36,451.30 430.68,443.38 430.55,443.23 C430.41,443.08 427.71,449.16 424.54,456.73 C406.01,501.09 403.62,509.11 403.55,527.00 C403.51,537.90 403.81,540.33 405.95,546.00 C409.24,554.72 417.21,562.90 425.01,565.54 C430.71,567.47 440.51,568.06 445.20,566.74 L 447.90 565.99 L 445.97 561.74 C442.43,553.95 444.20,545.53 450.20,541.61 C453.50,539.45 500.93,521.21 506.67,519.89 C513.48,518.32 518.60,519.93 524.93,525.63 C533.64,533.46 538.27,543.31 540.02,557.75 C543.26,584.37 531.52,612.42 507.88,634.50 C484.71,656.15 449.54,666.69 416.52,661.89 ZM 448.53 629.47 C469.89,625.74 488.14,614.04 499.82,596.57 C510.77,580.21 513.01,556.84 503.95,553.65 C501.95,552.95 499.69,553.49 493.45,556.18 L 485.50 559.60 L 484.93 566.15 C483.40,583.84 465.84,596.16 439.96,597.70 C408.11,599.60 382.76,582.00 373.33,551.44 C371.86,546.68 371.50,542.17 371.50,528.75 L 371.50 512.00 L 367.00 511.99 C364.52,511.99 360.42,512.74 357.87,513.65 C355.33,514.56 352.51,515.02 351.61,514.68 C347.78,513.21 347.30,503.85 350.89,500.60 C355.27,496.64 367.62,494.36 373.75,496.39 C375.28,496.90 376.13,496.71 376.40,495.82 C379.89,483.88 385.66,468.08 393.37,449.26 C412.58,402.40 419.45,377.78 423.70,340.50 L 424.50 333.50 L 438.48 333.22 C446.17,333.07 452.82,332.58 453.26,332.14 C453.69,331.71 453.31,325.08 452.41,317.42 C450.47,300.93 450.95,273.54 453.37,262.50 C457.00,245.91 460.01,240.21 471.91,227.28 C481.02,217.40 486.33,208.91 489.29,199.50 C491.17,193.54 491.49,190.35 491.40,178.00 C491.29,162.10 490.55,158.91 482.47,139.56 C477.41,127.43 476.83,120.25 480.29,112.67 C486.51,99.09 505.13,87.19 527.50,82.50 C539.23,80.04 555.60,80.23 565.55,82.93 C579.29,86.66 595.86,96.13 599.03,102.07 C599.81,103.52 599.60,104.40 598.11,105.89 C596.20,107.80 596.08,107.80 587.34,105.79 C575.83,103.13 559.12,102.97 550.00,105.41 C537.36,108.80 515.25,121.57 513.32,126.60 C513.01,127.42 514.36,132.23 516.33,137.30 C518.30,142.36 520.60,148.98 521.43,152.00 C523.85,160.76 525.27,175.76 524.53,184.50 C522.52,207.98 515.65,225.08 500.84,243.51 C490.50,256.36 488.44,259.98 486.00,269.50 C481.43,287.35 484.94,329.27 494.30,368.76 L 496.50 378.03 L 505.56 369.70 C521.31,355.23 532.98,346.97 572.65,322.18 C614.04,296.33 637.37,280.14 658.00,262.97 C676.27,247.76 694.91,226.98 700.97,215.07 C703.93,209.25 703.33,205.01 697.73,192.32 C683.66,160.41 652.13,116.14 622.01,85.98 C600.26,64.22 585.29,53.90 568.86,49.35 C559.94,46.88 535.32,46.81 525.38,49.23 C515.17,51.72 501.72,56.62 492.77,61.12 C488.52,63.25 484.42,65.00 483.66,65.00 C482.90,65.00 479.26,63.63 475.56,61.96 C459.46,54.65 436.39,51.03 418.38,52.97 C401.88,54.74 388.56,59.49 375.80,68.14 C372.67,70.26 369.36,72.00 368.44,72.00 C367.52,72.00 364.60,70.41 361.96,68.47 C355.82,63.96 342.24,57.61 334.47,55.61 C312.23,49.89 286.87,52.02 262.69,61.64 L 253.89 65.15 L 245.19 60.67 C216.04,45.68 189.01,43.10 164.94,53.03 C152.36,58.21 141.76,66.15 124.98,82.96 C104.89,103.07 93.24,117.38 70.77,149.59 C59.80,165.30 44.28,193.90 41.42,203.67 C40.07,208.28 40.07,209.23 41.42,212.45 C44.61,220.09 54.02,232.04 67.49,245.57 C89.91,268.09 112.83,285.38 166.50,320.28 C201.44,343.00 217.04,354.34 229.05,365.75 C234.40,370.84 239.03,375.00 239.32,375.00 C241.09,375.00 248.26,342.41 250.96,322.13 C253.44,303.44 253.69,279.54 251.49,270.22 C249.43,261.48 247.46,258.03 237.13,245.05 C226.54,231.75 222.21,223.94 217.58,209.81 C209.50,185.12 210.64,161.76 221.12,137.59 C223.26,132.68 225.00,128.12 225.00,127.45 C225.00,125.51 216.94,118.65 209.45,114.21 C190.82,103.16 171.46,100.68 149.11,106.47 C142.21,108.26 139.00,107.42 139.00,103.83 C139.00,100.48 144.92,95.80 156.10,90.30 C172.10,82.44 175.92,81.55 194.00,81.52 C211.82,81.50 218.49,82.83 231.50,89.04 C251.68,98.67 262.20,113.52 259.09,127.99 C258.51,130.71 255.75,138.36 252.96,145.00 C250.16,151.64 247.24,160.10 246.46,163.79 C243.68,176.88 245.19,194.28 250.09,205.70 C253.08,212.70 258.29,219.96 267.34,229.80 C276.79,240.07 279.92,245.56 283.11,257.50 C286.13,268.80 286.86,297.28 284.61,315.71 C283.73,322.97 283.00,329.84 283.00,330.96 C283.00,332.92 283.57,333.00 297.95,333.00 L 312.91 333.00 L 313.39 336.25 C313.66,338.04 314.38,349.85 314.99,362.50 C319.51,455.41 323.61,496.63 331.15,525.00 C340.94,561.85 354.01,586.24 374.61,606.11 C389.77,620.74 402.89,627.18 424.00,630.35 C430.03,631.26 440.41,630.88 448.53,629.47 ZM 471.42 458.79 C474.77,442.44 472.99,417.91 466.61,392.24 C465.27,386.89 463.16,377.56 461.91,371.53 C460.25,363.46 459.04,359.95 457.37,358.28 C454.61,355.52 453.87,355.47 450.95,357.84 C448.92,359.48 448.64,360.77 448.22,370.18 C447.62,383.74 449.35,398.30 453.43,413.97 C460.22,440.03 468.45,467.95 469.13,467.24 C469.52,466.83 470.55,463.03 471.42,458.79 ZM 274.88 438.72 C285.80,405.36 287.92,394.91 287.97,374.25 C288.00,361.31 287.82,359.82 286.00,358.00 C281.99,353.99 278.99,356.11 276.46,364.75 C271.57,381.48 264.93,409.95 263.45,420.50 C262.22,429.32 261.93,435.95 262.37,445.50 C263.02,459.72 263.89,467.00 264.94,467.00 C265.31,467.00 269.78,454.27 274.88,438.72 ZM 344.87 471.35 C344.12,470.44 343.50,467.70 343.50,465.26 C343.50,457.84 349.44,454.31 363.50,453.37 C372.18,452.79 375.37,454.17 375.81,458.70 C375.98,460.48 375.21,463.62 374.04,465.93 L 371.96 470.00 L 365.64 470.00 C362.16,470.00 357.11,470.67 354.41,471.49 C348.12,473.40 346.56,473.37 344.87,471.35 ZM 341.43 427.52 C337.95,424.04 337.99,416.84 341.51,413.58 C350.14,405.58 385.56,405.54 389.19,413.53 C390.63,416.68 389.41,422.42 386.60,425.68 L 384.29 428.37 L 375.71 427.03 C366.31,425.57 356.48,426.10 348.68,428.48 C343.98,429.91 343.80,429.89 341.43,427.52 ZM 337.07 381.37 C334.10,377.59 334.25,371.05 337.38,368.12 C341.83,363.93 353.31,360.78 366.00,360.27 C384.14,359.54 397.67,363.56 400.59,370.56 C401.81,373.49 401.82,374.49 400.67,377.25 C398.20,383.14 396.85,383.61 388.69,381.43 C377.99,378.56 357.10,378.74 347.39,381.78 C343.48,383.00 340.03,384.00 339.71,384.00 C339.40,384.00 338.21,382.81 337.07,381.37 ZM 336.25 344.87 C331.28,339.83 340.22,335.28 359.59,332.97 C374.33,331.22 394.91,334.16 400.25,338.79 C404.86,342.79 400.63,347.33 394.48,344.99 C382.98,340.62 362.18,339.70 349.93,343.01 C338.52,346.11 337.60,346.23 336.25,344.87 ZM 330.97 311.75 C326.12,301.06 329.71,296.52 346.60,291.98 C371.41,285.32 405.95,291.40 408.47,302.89 C409.23,306.30 406.51,313.65 404.01,315.00 C402.82,315.63 400.16,315.33 395.72,314.06 C379.24,309.35 359.91,309.32 343.26,313.98 C339.28,315.09 335.32,316.00 334.46,316.00 C333.60,316.00 332.05,314.11 330.97,311.75 ZM 329.50 259.80 C326.69,258.22 326.03,256.98 326.02,253.25 C326.00,249.09 328.36,246.76 335.23,244.19 C355.35,236.66 385.72,236.90 403.31,244.74 C410.44,247.92 412.85,251.54 410.92,256.19 C409.08,260.65 406.84,260.94 396.10,258.16 C387.70,255.98 384.32,255.67 369.00,255.63 C351.73,255.59 347.88,256.11 333.00,260.48 C332.17,260.72 330.60,260.42 329.50,259.80 ZM 291.76 214.00 C284.44,211.80 277.33,205.06 273.38,196.57 C269.13,187.43 270.76,183.37 278.57,183.68 C284.54,183.91 291.07,187.05 296.88,192.48 C305.15,200.22 307.29,207.80 302.55,212.55 C300.00,215.09 296.81,215.52 291.76,214.00 ZM 434.22 213.44 C428.88,209.70 432.89,197.13 441.55,190.53 C451.07,183.27 463.84,181.46 465.33,187.17 C466.68,192.32 459.84,204.77 453.11,209.42 C445.22,214.86 438.34,216.33 434.22,213.44 Z" fill="white"/>
</g>
</svg>