<?xml version="1.0" encoding="utf-8" ?><svg xmlns="http://www.w3.org/2000/svg" xmlns:xlink="http://www.w3.org/1999/xlink" width="512" height="512" viewBox="0 0 512 512"><path fill="#EFEEEE" d="M243.642 18.6291C375.951 12.1338 488.456 114.168 494.875 246.481C501.294 378.795 399.195 491.24 266.878 497.583C134.669 503.921 22.3345 401.924 15.9206 269.718C9.5066 137.512 111.44 25.1191 243.642 18.6291Z"/><path fill="#491747" d="M243.823 39.8555C246.5 39.5428 251.824 39.6346 254.594 39.6396C270.738 39.5718 286.836 41.353 302.575 44.9484C359.147 57.5288 408.403 92.0707 439.504 140.973C471.367 190.772 481.902 251.279 468.745 308.916C455.993 364.188 421.816 412.135 373.726 442.218C373.797 433.261 373.807 424.304 373.755 415.347C368.428 416.544 362.967 417.035 357.512 416.808C343.448 416.217 333.881 409.687 324.708 399.648C332.05 421.881 319.526 435.355 320.015 455.957C325.641 458.275 331.303 459.857 337.19 461.349C322.321 467.004 313.648 469.413 298.31 472.824C298.129 462.452 295.334 454.67 288.909 446.607C283.451 439.757 285.324 428.754 286.205 420.67C286.866 414.758 287.483 408.841 288.055 402.92C289.66 385.583 289.848 368.175 293.115 350.856C295.277 339.39 297.3 323.523 304.058 313.634C305.188 311.981 308.398 309.817 310.125 308.591C308.792 311.173 307.599 314.347 306.626 317.339C303.438 327.145 300.743 340.546 301.848 350.799C302.074 352.902 307.683 363.664 308.864 366.004C311.612 371.447 314.418 377.47 317.171 382.894C316.579 378.928 316.271 375.532 316.478 371.4C316.915 362.635 320.492 352.44 327.02 346.332C329.033 344.449 332.367 343.221 335.121 343.502C339.628 343.962 341.894 346.772 344.543 349.945C348.459 350.819 351.501 351.517 354.204 354.956C356.54 357.496 357.512 363.587 354.993 366.752C351.29 371.405 347.986 375.882 357.357 377.318C361.167 377.902 365.645 374.684 368.606 371.831C367.796 369.04 366.939 363.909 366.25 360.793C364.292 351.857 362.249 342.94 360.122 334.043C357.098 321.67 353.364 309.513 350.489 297.123C349.089 290.475 348.117 283.854 349.249 277.124C351.837 261.735 361.937 252.634 371.808 270.417C386.131 296.222 391.805 327.898 384.828 356.774C382.128 367.05 377.535 376.932 368.267 382.828C359.253 388.562 343.744 385.757 342.758 373.343C342.415 369.019 344.802 367.257 346.913 363.82C350.084 358.659 343.303 358.554 340.067 358.235C336.215 353.22 333.841 348.143 329.074 356.659C324.477 365.04 323.399 374.905 326.079 384.082C328.492 392.497 334.233 399.565 341.975 403.653C352.12 409.126 363.993 409.712 374.88 406.539C390.738 401.916 405.633 386.607 413.083 372.05C429.996 339.001 433.367 295.3 430.335 258.863C429.76 252.345 429.012 245.844 428.093 239.366C427.347 233.847 426.431 227.842 426.283 222.281C425.991 211.262 431.476 200.488 429.413 189.332C427.782 180.52 423.168 172.335 419.892 164.049C416.999 156.731 414.556 149.092 412.292 141.561C410.733 136.755 408.68 130.114 405.802 126.044C393.901 109.215 371.35 102.052 351.637 103.05C349.151 103.188 346.675 103.461 344.219 103.869C340.628 104.486 335.111 105.877 331.671 105.364C326.154 104.541 320.379 100.653 315.661 97.7799C298.788 87.393 274.274 81.1258 254.662 86.4316C235.002 91.7504 212.717 104.643 198.77 119.769C196.274 122.476 193.81 125.237 191.931 128.357C192.94 135.916 194.166 142.597 196.664 149.861C206.295 177.869 228.419 200.859 251.23 218.879C260.852 226.353 270.93 233.306 280.348 241.037C285.765 245.483 290.338 250.48 295.032 255.631C295.656 256.315 297.629 257.922 298.588 257.382C304.596 253.994 306.397 245.748 306.488 239.377C306.491 231.709 304.575 224.13 304.487 216.464C304.085 200.658 307.131 185.039 305.074 169.263C303.832 159.723 302.361 154.599 298.097 146.132C300.516 148.349 303.288 150.934 305.025 153.718C314.578 169.028 313.582 190.139 312.492 207.494C312.078 214.078 311.928 223.781 314.86 229.63C321.47 242.818 339.614 251.197 352.934 255.814C336.57 255.799 326.867 251.055 314.083 241.836C311.956 250.418 308.104 262.795 298.611 266.25C295.146 267.533 291.366 262.463 289.093 260.016C272.305 241.945 250.959 230.151 231.732 215.129C211.085 198.997 190.109 173.025 184.119 146.907C171.632 154.577 160.12 164.185 147.448 171.629C137.26 177.614 123.987 181.943 114.767 189.385C94.6564 205.617 79.5332 233.071 73.8431 258.058C70.9152 270.916 69.8231 284.325 66.78 297.258C64.9506 305.033 61.9699 308.052 59.1451 314.597C57.1638 319.187 56.2553 330.018 55.5522 335.418C62.417 330.973 67.1011 324.649 69.5506 316.785C70.0976 315.029 70.2124 311.442 70.8392 309.991C72.7382 305.596 74.8884 301.395 76.7432 296.935C77.6374 305.067 77.112 314.19 77.8032 322.532C79.1149 338.362 81.7322 353.953 82.2187 369.827C82.4254 376.572 80.9716 383.252 80.6848 389.905C54.2212 357.573 39.5174 316.446 36.6129 274.967C32.5798 216.337 52.1418 158.526 90.948 114.391C130.131 69.492 184.629 43.9001 243.823 39.8555Z"/><path fill="#491747" d="M219.866 290.107L220.145 290.322C220.393 290.781 220.644 300.447 220.783 301.871C221.373 308.02 222.335 314.128 223.664 320.161C227.235 336.959 235.201 351.859 236.667 368.997C237.727 381.381 237.442 393.544 236.742 405.942C235.95 416.315 235.911 427.628 234.097 437.864C231.901 450.261 229.118 460.75 228.34 473.436C226.052 472.866 224.423 472.63 222.092 472.355C221.654 462.685 220.038 456.108 214.172 448.245C212.209 445.614 210.143 442.99 209.071 439.844C207.013 433.808 205.985 406.548 206.067 398.824C206.116 394.178 206.436 389.355 207.687 384.869C208.785 380.934 210.713 377.298 212.385 373.588C216.96 363.438 220.565 353.614 220.683 342.33C218.815 342.864 216.896 343.347 215.043 343.911C201.152 348.137 186.918 350.112 172.608 352.428C169.568 352.988 163.698 353.919 161.772 356.284C157.928 361.004 155.224 368.132 152.542 373.586C154.388 379.882 157.084 385.66 158.658 392.123C163.774 413.127 162.109 433.779 161.79 455.001C148.999 448.595 134.596 439.968 123.499 431.106C125.964 418.928 129.591 403.39 134.82 392.147C136.232 389.113 139.438 384.221 141.299 381.115C143.74 376.957 146.046 372.72 148.215 368.413C149.872 365.03 151.399 361.584 152.793 358.084C153.948 355.254 155.546 351.05 157.153 348.512C163.178 346.959 170.776 346.259 177.091 345.284C192.63 342.884 203.828 340.09 218.103 333.736C215.284 320.107 215.526 303.309 219.866 290.107Z"/><path fill="#491747" d="M352.764 191.518C357.932 192.924 363.588 194.464 367.16 198.669C367.974 199.628 370.672 203.246 370.597 204.394C367.484 204.118 363.346 205.074 360.255 203.729C357.039 202.33 356.262 199.099 354.932 196.218C354.223 194.683 353.337 193.091 352.764 191.518Z"/></svg>