<svg xmlns="http://www.w3.org/2000/svg" xmlns:xlink="http://www.w3.org/1999/xlink" width="512" height="512" viewBox="0 0 658 512"><metadata><rdf:RDF xmlns:rdf="http://www.w3.org/1999/02/22-rdf-syntax-ns#" xmlns:dc="http://purl.org/dc/elements/1.1/"><rdf:Description><dc:creator>RealFaviconGenerator</dc:creator><dc:source>https://realfavicongenerator.net</dc:source></rdf:Description></rdf:RDF></metadata><path fill="#000" transform="scale(0.795647 0.795031)" d="M353.368 8.70477C359.825 8.05051 370.6 8.29335 377.291 8.4693C398.102 9.01656 424.091 9.97843 444.187 15.0961C442.195 19.4777 439.158 23.826 436.896 28.3372C371.934 157.901 470.125 366.192 631.442 336.355C640.268 334.723 646.982 329.101 654.249 337.333C687.229 374.692 701.513 424.033 700.417 473.271C699.763 500.164 692.442 544.552 657.328 543.322C667.674 566.516 696.703 558.465 710.932 543.509C738.031 515.023 738.644 469.747 739.541 432.872C739.955 412.577 740.06 392.277 739.856 371.978C722.203 366.709 702.202 350.137 690.95 335.922C683.615 326.656 673.541 313.115 681.549 301.365C683.819 298.01 687.334 295.698 691.314 294.943C705.345 292.285 709.338 306.482 716.418 315.209C733.765 336.588 760.848 350.397 788.759 344.978C797.161 343.347 807.898 337.191 815.678 342.854C821.945 347.415 823.721 357.49 818.437 363.568C808.971 374.31 791.031 377.25 777.459 378.872C777.627 408.517 777.965 438.636 776.061 468.055C773.498 507.656 762.327 549.974 729.867 575.624C711.531 590.113 685.314 597.158 662.404 590.939C647.4 586.918 634.632 577.054 626.954 563.551C617.669 547.323 618.053 522.968 635.844 512.671C645.187 507.263 657.595 509.739 662.71 519.615C676.14 506.427 677.738 485.661 677.766 467.771C677.812 438.263 671.514 407.843 656.55 382.153C653.126 376.033 648.882 370.409 643.936 365.437C638.911 367.276 633.76 368.75 628.523 369.849C616.107 372.423 605.546 372.776 596.575 383.148C584.977 396.555 585.945 411.341 585.986 427.76L586.04 458.479L585.966 577.606L586.047 604.174C586.064 608.616 586.195 613.057 585.949 617.481C585.391 627.501 579.369 634.419 569.041 634.672C560.314 634.886 551.676 634.826 542.988 634.836L493.433 634.856L456.171 634.8C453.754 634.795 451.022 634.911 448.626 634.78C441.781 634.406 432.91 636.1 427.439 631.084C421.245 625.404 421.995 617.085 421.959 609.456C421.937 604.822 421.985 600.248 421.993 595.647L422.022 553.993C422.033 546.43 422.35 538.101 421.975 530.702C418.309 458.795 296.176 451.972 277.218 517.739C274.444 527.361 275.334 545.461 275.337 556.125L275.454 599.763C275.501 607.936 276.338 618.296 273.722 625.921C269.783 637.402 253.423 634.754 243.559 634.817L205.604 634.966L82.1589 634.887C75.437 634.852 70.9375 635.153 65.9755 629.929C63.447 627.038 61.73 621.993 61.5919 618.12C61.2274 607.897 61.4055 597.259 61.4202 587.038L61.448 526.701L61.5362 336.492C59.9091 340.776 59.4989 348.823 57.8797 353.535C53.0472 367.596 44.6386 410.505 26.0612 411.335C21.892 411.499 17.8285 410 14.7644 407.169C12.2131 404.764 10.5793 401.415 10.546 397.878C10.5 393 20.5259 372.128 22.8008 366.038C25.5293 358.63 27.8119 351.066 29.6366 343.385C34.7589 321.078 36.5512 301.021 39.7059 278.525C41.7588 264.959 43.9658 251.397 46.7082 237.961C77.242 88.3585 207.861 12.9691 353.368 8.70477ZM304.552 247.594C317.389 247.949 331.41 247.619 344.348 247.601C345.683 247.586 347.665 247.729 348.772 247.154C349.453 242.321 349.185 231.347 349.187 226.023L348.917 180.302L348.977 107.391C349.097 91.8862 349.495 76.4509 349.342 60.9068C349.241 50.6128 343.721 51.8763 335.248 52.0489C326.532 52.2266 317.462 51.7825 308.788 52.2289C305.843 52.8488 304.538 53.7759 304.463 56.9296C304.246 66.1818 304.37 75.4656 304.4 84.7189L304.468 131.593C304.476 169.94 303.958 209.332 304.552 247.594ZM282.744 274.69C284.052 273.711 284.843 273.237 284.976 271.257C285.478 263.823 285.276 255.642 285.275 248.195L285.292 203.569L285.318 130.873C285.322 119.844 285.419 108.711 285.383 97.6767C285.371 94.26 284.773 90.8692 280.64 90.6683C272.052 90.2505 263.343 90.4516 254.719 90.4911C251.834 93.3325 252.082 93.9375 252.054 98.1663L252.057 201.989L251.999 243.163C251.997 248.718 251.466 269.678 253.359 273.425C256.81 275.542 277.762 274.918 282.744 274.69ZM161.771 409.269C175.451 409.426 189.132 409.496 202.813 409.479L207.48 409.442L207.494 340.603L207.53 320.094C207.545 316.036 207.801 311.766 207.335 307.733C207.15 306.133 206.497 304.369 205.254 303.276C202.965 301.261 171.151 302.13 166.854 302.123C162.359 302.741 161.441 304.327 161.531 308.731C162.211 342.097 160.877 375.969 161.771 409.269ZM175.614 274.646C176.491 273.649 177.517 272.498 177.582 271.15C177.849 265.605 177.764 259.769 177.782 254.212L177.868 218.926L177.916 166.335C177.909 159.791 178.615 135.907 176.231 131.492C172.863 130.28 153.825 130.743 149.36 130.989C148.626 131.357 147.411 132.002 147.357 132.822C146.518 145.602 146.956 163.111 146.956 175.641L146.948 234.711C146.947 243.595 145.99 264.764 147.769 272.594C149.099 274.081 151.652 274.637 153.55 274.647C160.74 274.683 168.463 274.831 175.614 274.646ZM97.7497 409.297C111.906 409.486 126.065 409.538 140.223 409.452L141.461 409.327C142.027 408.361 142.127 406.368 142.111 405.22C141.772 381.723 142.164 358.2 141.924 334.703C141.823 324.768 137.79 315.308 128.939 310.216C120.826 305.549 109.299 305.587 100.135 306.248C98.4552 306.717 98.9101 306.337 97.9531 307.538C97.0636 312.12 97.5499 334.563 97.5669 340.53C97.504 363.452 97.5649 386.375 97.7497 409.297ZM510.762 574.994L542.113 574.953L548.005 574.95L547.976 502.339C547.979 491.71 548.338 479.617 547.526 469.011C547.418 467.594 545.883 465.85 544.927 464.806C538.972 464.204 523.168 464.358 516.657 464.522C511.69 465.297 510.967 466.897 510.745 471.707C510.414 478.869 510.498 486.043 510.493 493.213L510.491 528.354L510.506 557.804C510.512 562.673 510.355 570.322 510.762 574.994ZM201.276 574.964L233.704 574.941L238.563 574.931L238.557 512.714C238.574 502.255 238.677 491.568 238.564 481.101C238.544 479.321 237.932 476.495 236.954 474.992C233.834 473.417 209.87 473.854 204.91 474.082C203.721 474.587 202.024 475.65 201.867 476.886C200.632 486.58 201.21 500.396 201.211 510.029L201.276 574.964ZM459.114 574.948C468.575 575.033 478.037 575.034 487.498 574.95C488.963 574.972 489.542 575.257 490.493 574.508C490.854 571.827 490.64 563.972 490.632 560.701L490.558 531.954L490.577 492.758C490.584 485.004 491.628 471.372 488.502 464.893C481.293 464.287 468.828 464.488 461.208 464.805C459.357 466.624 458.889 467.52 458.921 470.192C459.332 505.029 458.37 540.134 459.114 574.948ZM232.018 273.418C232.552 272.103 232.95 270.862 232.958 269.428C233.104 243.524 232.954 217.611 232.99 191.705C232.995 187.97 233.027 184.209 232.907 180.478L197.025 180.413L197.092 237.002C197.083 243.499 196.382 269.089 198.26 273.282C201.356 275.774 211.852 274.517 216.187 274.612C219.988 274.696 229.146 275.577 232.018 273.418ZM451.829 409.24L461.351 409.384C470.457 409.471 479.564 409.474 488.671 409.394L488.707 356.844C488.711 347.571 488.92 337.552 488.65 328.383C486.417 326.174 482.454 321.849 479.365 321.573C471.19 321.929 462.947 321.26 454.897 322.213C452.966 322.892 451.538 324.671 451.505 326.746C451.354 336.125 451.275 345.676 451.466 355.053C451.824 372.598 450.688 391.024 451.776 408.473C451.792 408.729 451.81 408.985 451.829 409.24ZM336.756 409.242C347.732 409.395 358.709 409.469 369.687 409.464C370.886 409.48 372.197 409.654 373.181 409.068C373.602 404.024 373.414 397.765 373.398 392.588L373.323 366.222C373.299 352.991 373.648 339.646 373.086 326.424C372.988 324.128 370.805 322.922 368.997 321.828C360.297 321.77 349.212 321.469 340.715 321.86C339.308 322.466 337.736 323.082 337.079 324.592C335.769 327.598 336.126 400.953 336.756 409.242ZM147.508 574.954C158.54 575.006 169.572 574.989 180.603 574.905L181.662 574.802C182.335 572.717 181.83 506.883 181.71 499.399C171.031 499.277 160.351 499.212 149.671 499.206C148.152 499.339 147.905 499.071 147.11 499.889C146.822 509.296 147.172 520.083 147.226 529.635C147.31 544.32 146.867 560.326 147.508 574.954ZM422.586 336.761L430.846 336.741C431.169 332.462 431.251 330.012 430.804 325.625C429.662 324.364 428.861 323.425 427.518 322.346C420.89 321.502 408.895 321.933 401.868 322C394.574 322.079 392.639 323.505 393.024 331.216C393.118 333.045 393.224 334.872 393.343 336.699L422.586 336.761ZM148.221 603.437C157.145 603.78 166.113 603.579 175.044 603.647C177.189 603.663 179.35 603.697 181.484 603.452C181.75 599.012 181.798 593.69 181.506 589.24C170.195 588.828 158.778 589.251 147.478 589.078C147.466 593.126 147.294 599.609 148.221 603.437ZM127.532 589.245C118.062 588.932 107.666 589.02 98.1329 589.087C98.1027 593.053 97.8403 599.72 98.6593 603.444C105.523 603.785 120.722 603.855 127.555 603.443L127.532 589.245ZM509.411 437.673C521.181 437.926 536.578 438.072 548.266 437.642C548.324 433.121 548.331 428.6 548.287 424.079C536.146 423.791 521.07 423.689 508.948 424.06C509.147 428.287 509.035 433.694 509.411 437.673ZM93.6772 260.875C93.6377 264.054 93.1755 271.25 94.4953 273.851C96.9515 275.025 123.73 274.932 126.861 274.045C127.623 270.332 127.345 264.902 127.194 261.016L93.6772 260.875ZM201.933 603.404C210.542 603.701 229.969 604.038 238.178 603.377C238.335 598.621 238.35 593.861 238.222 589.104C226.233 588.979 213.349 589.407 201.554 589.082C201.613 593.857 201.739 598.632 201.933 603.404ZM548.116 409.467C548.74 395.577 548.361 378.553 548.289 364.518C534.15 358.694 522.081 353.952 509.126 345.533C509.324 366.331 508.5 388.734 509.156 409.28C522.142 409.447 535.129 409.51 548.116 409.467ZM392.998 350.992C393.694 369.938 392.527 390.052 393.288 409.197C404.955 409.658 419.392 409.605 431.168 409.418C431.988 408.27 431.674 356.553 431.486 350.934C419.655 350.731 404.771 350.546 392.998 350.992ZM431.258 437.584C431.394 433.053 431.553 428.572 431.515 424.038C419.105 423.865 405.613 423.779 393.203 424.03C393.15 428.586 393.186 433.143 393.313 437.697C404.63 437.751 420.22 438.194 431.258 437.584ZM547.653 589.235C535.263 589.038 522.872 589.024 510.482 589.194C510.783 593.994 510.646 598.677 510.905 603.364C516.725 603.815 523.788 603.656 529.699 603.666C535.475 603.675 542.324 603.856 548.019 603.499C547.696 598.514 547.821 594.118 547.653 589.235ZM279.083 352.229C279.127 370.816 278.815 390.863 279.437 409.374C291.714 409.531 304.938 409.674 317.205 409.481C317.845 391.213 317.392 370.677 317.409 352.21C305.14 352.068 291.312 351.86 279.083 352.229ZM317.023 437.688C317.192 432.891 317.397 428.789 317.026 424.005C305.043 423.87 291.163 423.607 279.224 423.98C279.25 428.622 279.206 433.134 279.644 437.758C291.706 437.766 305.052 438.053 317.023 437.688ZM259.422 408.852C259.999 390.647 259.473 370.105 259.307 351.758C250.655 352.178 237.249 351.717 228.139 351.714L228.121 389.641C228.15 395.29 227.959 403.915 228.478 409.234C231.579 409.345 258.191 409.903 259.328 409.057L259.422 408.852ZM452.286 437.678C463.999 437.772 476.896 437.954 488.568 437.691L488.604 423.995C477.183 423.958 462.623 423.554 451.474 424.18C451.644 427.861 451.765 434.237 452.286 437.678ZM415.452 234.397L415.252 258.737C415.254 262.187 414.725 271.833 416.857 274.039C420.469 275.288 431.437 274.745 435.774 274.691L436.427 274.332C435.311 270.315 426.275 257.405 424.092 252.412C423.081 250.099 415.836 234.852 415.452 234.397ZM95.7122 216.078C93.4957 229.319 93.3217 233.874 93.2954 247.176C103.947 247.194 116.194 247.483 126.721 246.993C127.58 246.159 127.37 244.128 127.363 242.644C127.325 233.826 127.518 224.861 127.386 216.055C117.17 215.998 105.84 215.73 95.7122 216.078ZM458.74 589.105C458.895 593.846 459.024 598.735 459.321 603.466C465.138 603.67 485.156 604.045 490.211 603.303C490.487 598.519 490.301 593.922 490.172 589.135C479.695 589.06 469.217 589.05 458.74 589.105ZM373.066 423.985C360.919 423.944 348.773 423.974 336.627 424.074C336.682 428.173 336.637 433.668 336.968 437.703L373.099 437.711C373.22 433.136 373.209 428.559 373.066 423.985ZM402.594 246.909C403.359 228.989 403.311 209.009 402.654 190.968C402.579 188.92 398.949 183.051 397.739 181.025C389.478 180.129 376.579 180.489 367.953 180.548C368.014 202.383 367.525 225.815 368.267 247.444C378.446 246.412 392.015 247.877 402.594 246.909ZM402.486 260.861C392.256 260.845 378.22 260.415 368.229 260.903C368.223 265.004 368.008 270.579 368.8 274.51C372.707 274.79 399.642 275.184 401.577 273.977C402.836 269.184 402.559 265.769 402.486 260.861ZM259.164 437.622C259.374 432.982 259.377 428.692 259.354 424.044C249.055 423.92 238.754 423.907 228.454 424.003C228.41 428.278 228.353 433.489 229.019 437.704C237.714 437.795 250.604 438.068 259.164 437.622ZM98.2123 485.743L119.426 485.78L127.544 485.771C127.779 461.883 128.944 464.078 105.311 464.527C95.2345 464.847 98.0162 478.471 98.2123 485.743ZM304.744 262.222C304.72 265.44 304.283 271.652 305.742 274.298C308.512 275.273 346.105 275.425 348.13 274.47C348.718 270.763 348.592 266.043 348.532 262.242C335.2 261.663 318.279 262.043 304.744 262.222ZM147.531 485.822L175.152 485.771L181.74 485.77C181.835 479.384 183.869 464.215 175.172 464.283C168.017 464.339 160.167 464.491 152.942 464.515C145.162 465.836 147.362 479.884 147.531 485.822ZM97.7138 424.079C97.8506 428.231 98.0369 433.578 97.8962 437.684C111.035 437.856 128.752 438.199 141.723 437.723C141.803 433.199 141.945 428.518 141.872 424.01C127.405 423.985 112.121 423.758 97.7138 424.079ZM161.782 424.14C161.909 427.793 161.81 434.578 162.332 437.797L195.75 437.811C197.515 437.815 205.822 438.066 206.951 437.777C207.205 433.212 207.172 428.448 207.446 424.043C193.38 423.866 175.677 423.555 161.782 424.14ZM99.9165 202.847C108.931 203.123 118.232 202.872 127.303 202.978C127.752 186.093 127.338 169.105 127.496 152.208C127.509 150.78 127.633 148.598 127.46 147.266C116.092 161.306 108.729 175.801 102.515 192.759C101.652 195.113 99.6092 200.435 99.2111 202.588C99.513 202.732 99.6777 202.883 99.9165 202.847ZM233.645 305.788C230.335 306.233 230.24 306.617 228.232 309.221C227.778 318.425 228.153 329.437 228.181 338.823C237.04 338.961 246.458 339.142 255.299 338.967L259.613 338.895C259.622 334.509 259.156 325.856 259.639 321.95C262.21 301.137 250.478 305.622 233.645 305.788ZM282.137 302.533C278.043 305.449 279.03 311.072 279.081 315.769C279.168 323.697 279.153 331.713 279.427 339.631C291.309 339.718 303.19 339.737 315.072 339.688L316.724 339.563C317.386 338.716 317.428 337.644 317.495 336.606C317.675 333.808 317.286 330.969 317.319 328.163C317.393 321.729 318.163 314.757 317.383 308.404C317.171 306.672 316.655 304.08 315.124 303.033C312.708 301.382 286.562 302.236 282.137 302.533ZM370.211 105.091C367.108 107.572 368.025 119.415 368.029 123.527L368.078 152.423C368.085 156.016 368.322 163.814 368.023 167.179C376.111 167.218 384.531 167.368 392.591 167.233C393.887 167.185 394.805 167.402 395.613 166.707C395.769 157.374 395.503 147.845 395.483 138.49C395.459 127.316 395.539 116.167 395.171 105.001C387.397 104.938 377.915 104.69 370.211 105.091ZM231.079 167.162L232.512 167.066C233.489 165.278 232.915 156.129 232.933 153.489L233.029 127.053C233.036 123.071 233.88 106.323 230.702 105.623C225.105 104.389 205.187 104.679 199.515 105.053C198.179 106.001 197.316 106.867 197.207 108.585C196.831 114.542 196.993 121.109 197.009 127.085L197.116 167.162L231.079 167.162ZM98.0349 499.31C98.06 524.347 97.7506 549.978 98.153 574.961C107.943 575.025 117.733 575.026 127.523 574.964L127.482 525.574C127.481 517.649 127.778 507.129 127.398 499.44C118.729 499.25 106.45 498.808 98.0349 499.31Z"></path><path fill="#000" transform="scale(0.795647 0.795031)" d="M538.469 10.2643C539.548 10.2066 540.629 10.1965 541.708 10.2339C599.312 12.2397 658.583 46.6179 697.119 88.4093C747.305 142.834 770.338 212.492 776.051 285.223C776.762 294.492 777.224 303.778 777.436 313.072C777.559 317.045 777.951 321.2 777.75 325.162C777.651 327.12 777.367 328.955 775.777 330.278C773.338 332.307 769.498 332.176 766.524 331.784C760.008 330.927 744.517 325.908 741.348 319.811C740.01 317.237 738.944 292.064 738.41 286.992C737.388 277.284 736.422 267.551 734.846 257.914C727.397 212.372 711.364 166.643 683.126 129.738C653.132 90.5377 601.989 53.5166 552.104 46.9292C531.137 44.074 511.324 48.0887 497.719 65.4481C481.767 85.8009 481.341 115.824 484.515 140.352C490.025 182.932 511.497 226.022 545.36 252.989C556.665 261.88 582.047 278.118 596.915 272.522C600.786 271.065 606.375 265.162 612.369 264.738C616.755 264.428 620.718 265.736 624.102 268.518C627.822 271.629 630.141 276.099 630.542 280.93C631.784 297.203 608.946 307.426 595.419 308.177C567.853 309.708 539.053 295.659 518.733 278.143C508.744 269.641 499.587 260.209 491.385 249.974C465.333 216.865 450.029 173.456 447.034 131.711C443.849 87.336 454.611 39.662 498.211 19.0807C511.771 12.6795 523.697 11.2551 538.469 10.2643Z"></path><path fill="#000" transform="scale(0.795647 0.795031)" d="M659.12 164.51C668.614 162.878 677.627 169.271 679.224 178.77C680.821 188.269 674.395 197.257 664.89 198.82C655.433 200.375 646.499 193.989 644.91 184.539C643.321 175.088 649.675 166.133 659.12 164.51Z"></path><style>@media (prefers-color-scheme: light) { :root { filter: none; } }
@media (prefers-color-scheme: dark) { :root { filter: contrast(0.3846153846153846) brightness(4.5); } }
</style></svg>